<svg width="566" height="566" viewBox="0 0 566 566" fill="none" xmlns="http://www.w3.org/2000/svg">
<g clip-path="url(#clip0)">
<path d="M174.128 383.205L167.099 405.564C165.158 411.738 168.59 418.316 174.764 420.257C180.969 422.208 187.526 418.737 189.457 412.592L196.486 390.233C198.427 384.06 194.995 377.481 188.821 375.54C182.648 373.599 176.069 377.031 174.128 383.205ZM121.701 333.754C117.325 328.986 109.911 328.668 105.143 333.045L87.8769 348.893C83.1091 353.27 82.7917 360.683 87.168 365.451C91.5444 370.219 98.9578 370.536 103.726 366.16L120.992 350.311C125.76 345.935 126.078 338.521 121.701 333.754ZM419.244 396.81L384.711 428.507C379.943 432.884 379.626 440.297 384.002 445.065C388.378 449.833 395.792 450.15 400.56 445.774L435.093 414.076C439.861 409.7 440.178 402.287 435.802 397.519C431.425 392.751 424.012 392.433 419.244 396.81ZM294.891 77.2122L301.92 54.8534C303.861 48.6795 300.429 42.1008 294.255 40.16C288.081 38.2192 281.503 41.6505 279.561 47.8249L272.532 70.1837C270.592 76.3576 274.023 82.9363 280.197 84.8771C286.402 86.8276 292.959 83.3572 294.891 77.2122ZM71.8202 254.415L48.9424 259.507C42.6246 260.913 38.643 267.175 40.0496 273.491C41.4562 279.809 47.7169 283.79 54.0341 282.384L76.9119 277.292C83.2079 275.89 87.2158 269.645 85.8046 263.307C84.3981 256.99 78.1373 253.009 71.8202 254.415ZM365.293 94.2572L348.026 110.106C343.259 114.482 342.941 121.896 347.318 126.664C351.694 131.431 359.107 131.749 363.875 127.372L381.142 111.524C385.91 107.147 386.227 99.734 381.851 94.9661C377.474 90.1982 370.061 89.8808 365.293 94.2572ZM414.985 178.033L392.107 183.125C385.789 184.532 381.807 190.793 383.214 197.11C384.621 203.428 390.881 207.409 397.199 206.003L420.076 200.91C426.372 199.509 430.38 193.264 428.969 186.926C427.563 180.608 421.302 176.627 414.985 178.033ZM266.775 166.647C268.716 160.473 265.284 153.894 259.11 151.954C252.936 150.013 246.359 153.444 244.417 159.618L241.592 168.603L201.964 177.422L195.596 170.485C191.22 165.717 183.807 165.399 179.039 169.776C174.271 174.152 173.954 181.565 178.33 186.333L184.697 193.27L172.523 232L163.33 234.047C157.013 235.453 153.031 241.715 154.437 248.031C155.844 254.349 162.105 258.33 168.422 256.924L177.617 254.877L205.068 284.783L202.243 293.77C200.302 299.944 203.734 306.522 209.908 308.463C216.102 310.41 222.665 306.955 224.601 300.798L227.426 291.814L267.055 282.996L273.422 289.933C277.799 294.701 285.212 295.018 289.98 290.642C294.748 286.265 295.065 278.852 290.689 274.084L284.321 267.147L296.496 228.417L305.689 226.37C311.985 224.969 315.993 218.724 314.581 212.386C313.175 206.068 306.914 202.087 300.597 203.493L291.401 205.54L263.951 175.634L266.775 166.647ZM274.136 221.391L261.963 260.118L222.337 268.937L194.883 239.027L207.056 200.299L246.683 191.481L274.136 221.391ZM147.341 135.242C94.977 183.307 91.4788 265.012 139.543 317.377C172.446 353.223 222.53 367.338 269.006 354.442L294.36 382.063L285.726 389.987C280.959 394.364 280.641 401.777 285.017 406.545C289.394 411.313 296.807 411.63 301.575 407.254L310.208 399.33L318.661 408.538C331.77 422.82 354.053 423.774 368.334 410.665L402.867 378.968C417.148 365.859 418.102 343.576 404.994 329.295L396.541 320.086L405.175 312.162C409.942 307.785 410.26 300.372 405.883 295.604C401.507 290.836 394.094 290.519 389.326 294.895L380.693 302.819L355.339 275.198C360.038 262.573 362.71 249.342 363.296 235.762C364.78 201.347 352.769 168.418 329.475 143.041C281.411 90.6763 199.706 87.178 147.341 135.242ZM387.727 345.144C392.097 349.904 391.779 357.332 387.018 361.701L352.485 393.399C347.725 397.768 340.297 397.45 335.928 392.69L327.475 383.481L379.275 335.935L387.727 345.144ZM339.88 234.753C339.309 248.006 336.312 260.849 330.974 272.922C329.091 277.183 329.909 282.154 333.059 285.585L363.425 318.669L311.626 366.215L281.259 333.132C278.109 329.7 273.226 328.46 268.821 329.973C229.14 343.594 185.173 332.429 156.81 301.528C117.484 258.684 120.347 191.835 163.19 152.509C206.034 113.184 272.883 116.046 312.209 158.889C331.267 179.652 341.094 206.595 339.88 234.753ZM225.876 238.133C230.252 242.901 237.666 243.218 242.434 238.842C247.202 234.465 247.519 227.052 243.143 222.284C238.766 217.516 231.353 217.199 226.585 221.575C221.817 225.952 221.5 233.365 225.876 238.133Z" fill="url(#paint0_linear)"/>
</g>
<defs>
<linearGradient id="paint0_linear" x1="417.826" y1="429.925" x2="147.341" y2="135.242" gradientUnits="userSpaceOnUse">
<stop stop-color="#5352ED"/>
<stop offset="1" stop-color="#7FABFF"/>
</linearGradient>
<clipPath id="clip0">
<rect width="400" height="400" fill="white" transform="translate(0 270.485) rotate(-42.5484)"/>
</clipPath>
</defs>
</svg>
