<?xml version="1.0"?>
<svg xmlns="http://www.w3.org/2000/svg" xmlns:xlink="http://www.w3.org/1999/xlink" xmlns:svgjs="http://svgjs.com/svgjs" version="1.1" width="512" height="512" x="0" y="0" viewBox="0 0 512 512" style="enable-background:new 0 0 512 512" xml:space="preserve" class=""><g><linearGradient xmlns="http://www.w3.org/2000/svg" id="SVGID_1_" gradientUnits="userSpaceOnUse" x1="256" x2="256" y1="512" y2="0"><stop stop-opacity="1" stop-color="#5352ed" offset="0"/><stop stop-opacity="1" stop-color="#7fabff" offset="1"/></linearGradient><g xmlns="http://www.w3.org/2000/svg"><g><g><path d="m66.635 257.01-25.981 15c-7.174 4.142-9.632 13.316-5.49 20.49 4.163 7.21 13.35 9.613 20.49 5.49l25.981-15c7.174-4.142 9.632-13.316 5.49-20.49-4.141-7.174-13.316-9.632-20.49-5.49zm-6.635-92.01c0-8.284-6.716-15-15-15h-30c-8.284 0-15 6.716-15 15s6.716 15 15 15h30c8.284 0 15-6.716 15-15zm226 317h-60c-8.284 0-15 6.716-15 15s6.716 15 15 15h60c8.284 0 15-6.716 15-15s-6.716-15-15-15zm159.365-409.01 25.981-15c7.174-4.142 9.632-13.316 5.49-20.49s-13.315-9.632-20.49-5.49l-25.981 15c-7.174 4.142-9.632 13.316-5.49 20.49 4.163 7.21 13.35 9.613 20.49 5.49zm-363.73-25.98-25.981-15c-7.175-4.142-16.349-1.684-20.49 5.49-4.142 7.175-1.684 16.348 5.49 20.49l25.981 15c7.15 4.128 16.335 1.708 20.49-5.49 4.142-7.175 1.684-16.348-5.49-20.49zm415.365 102.99h-30c-8.284 0-15 6.716-15 15s6.716 15 15 15h30c8.284 0 15-6.716 15-15s-6.716-15-15-15zm-25.654 122.01-25.981-15c-7.175-4.142-16.349-1.684-20.49 5.49-4.142 7.175-1.684 16.348 5.49 20.49l25.981 15c7.15 4.128 16.335 1.708 20.49-5.49 4.143-7.175 1.685-16.348-5.49-20.49zm-129.904-139.02c7.174-4.142 9.632-13.316 5.49-20.49s-13.314-9.632-20.49-5.49l-10.44 6.027-45.002-25.984v-12.053c0-8.284-6.716-15-15-15s-15 6.716-15 15v12.053l-45.003 25.984-10.44-6.027c-7.174-4.142-16.349-1.684-20.49 5.49-4.142 7.175-1.684 16.348 5.49 20.49l10.443 6.029v51.961l-10.442 6.029c-7.174 4.142-9.632 13.316-5.49 20.49 4.155 7.197 13.335 9.62 20.49 5.49l10.44-6.027 45.002 25.985v12.053c0 8.284 6.716 15 15 15s15-6.716 15-15v-12.053l45.003-25.984 10.44 6.027c7.15 4.128 16.335 1.708 20.49-5.49 4.142-7.175 1.684-16.348-5.49-20.49l-10.443-6.029v-51.961zm-40.442 57.994-45 25.983-45-25.983v-51.967l45-25.983 45 25.983zm-45-190.984c-90.981 0-165 74.019-165 165 0 62.282 35.011 118.943 90 147.009v47.991h-15c-8.284 0-15 6.716-15 15s6.716 15 15 15h15v16c0 24.813 20.187 45 45 45h60c24.813 0 45-20.187 45-45v-16h15c8.284 0 15-6.716 15-15s-6.716-15-15-15h-15v-47.991c15.358-7.838 29.33-18.002 41.637-30.301 31.187-31.168 48.363-72.616 48.363-116.708 0-90.981-74.019-165-165-165zm45 406c0 8.271-6.729 15-15 15h-60c-8.271 0-15-6.729-15-15v-16h90zm50.43-145.511c-12.01 12.003-25.952 21.52-41.436 28.285-5.464 2.387-8.995 7.783-8.995 13.745v57.481h-90v-57.481c0-5.962-3.531-11.358-8.995-13.745-49.208-21.501-81.004-70.085-81.004-123.774 0-74.439 60.561-135 135-135s135 60.561 135 135c0 36.075-14.053 69.987-39.57 95.489zm-110.43-95.489c0 8.284 6.716 15 15 15s15-6.716 15-15-6.716-15-15-15-15 6.716-15 15z" fill="url(#SVGID_1_)" data-original="url(#SVGID_1_)" style=""/></g></g></g></g></svg>
